<svg xmlns="http://www.w3.org/2000/svg" viewBox="0 0 24 24" fill="none" stroke="currentColor" stroke-width="1.5" stroke-linecap="round" stroke-linejoin="round">
  <path d="M10.4 2.6h3.2l.7 2.2a7.9 7.9 0 0 1 2 .8l2.1-1.1 2.3 2.3-1.1 2.1a7.9 7.9 0 0 1 .8 2l2.2.7v3.2l-2.2.7a7.9 7.9 0 0 1-.8 2l1.1 2.1-2.3 2.3-2.1-1.1a7.9 7.9 0 0 1-2 .8l-.7 2.2h-3.2l-.7-2.2a7.9 7.9 0 0 1-2-.8l-2.1 1.1-2.3-2.3 1.1-2.1a7.9 7.9 0 0 1-.8-2l-2.2-.7v-3.2l2.2-.7a7.9 7.9 0 0 1 .8-2L3.6 6.8l2.3-2.3 2.1 1.1a7.9 7.9 0 0 1 2-.8l.4-2.2Z"/>
  <circle cx="12" cy="12" r="3"/>
</svg>
