<svg xmlns="http://www.w3.org/2000/svg" viewBox="0 0 60 46" fill="none">
  <!-- 안테나 -->
  <line x1="27" y1="11" x2="33" y2="2"
        stroke="#7c3aed" stroke-width="3.5" stroke-linecap="round"/>

  <!-- 몸통 -->
  <rect x="3" y="10" width="38" height="33" rx="11" fill="#7c3aed"/>

  <!-- 왼쪽 눈 -->
  <rect x="11.5" y="20" width="8" height="13" rx="4" fill="white"/>
  <!-- 오른쪽 눈 -->
  <rect x="24.5" y="20" width="8" height="13" rx="4" fill="white"/>

  <!-- 팔 -->
  <line x1="41" y1="30" x2="48" y2="28"
        stroke="#7c3aed" stroke-width="4" stroke-linecap="round"/>

  <!-- 위쪽 집게 (두꺼운 곡선 핀서) -->
  <path d="M48 28 C51 23 55 19 58 20 C60 21 59 24 57 25 C54 27 50 28 48 28 Z"
        fill="#7c3aed"/>

  <!-- 아래쪽 집게 -->
  <path d="M48 28 C51 33 55 38 58 37 C60 36 59 33 57 32 C54 30 50 28 48 28 Z"
        fill="#7c3aed"/>
</svg>
