<svg xmlns="http://www.w3.org/2000/svg" viewBox="0 0 66 50" fill="none">
  <!-- 안테나 -->
  <line x1="27" y1="11" x2="33" y2="2"
        stroke="#7c3aed" stroke-width="3.5" stroke-linecap="round"/>

  <!-- 몸통 -->
  <rect x="3" y="10" width="38" height="33" rx="11" fill="#7c3aed"/>

  <!-- 왼쪽 눈 -->
  <rect x="11.5" y="20" width="8" height="13" rx="4" fill="white"/>
  <!-- 오른쪽 눈 -->
  <rect x="24.5" y="20" width="8" height="13" rx="4" fill="white"/>

  <!-- 짧은 팔 -->
  <line x1="41" y1="28" x2="46" y2="28"
        stroke="#7c3aed" stroke-width="5" stroke-linecap="round"/>

  <!-- 위 집게 — 지그재그 (아주 약간 작게) -->
  <path d="
    M 46 24
    C 50 17 56 12 61 15
    L 59 22 L 57 19 L 54 24 L 52 21 L 49 26 L 47 23 L 46 29
    Z"
    fill="#7c3aed"/>

  <!-- 아래 집게 — 지그재그 (아주 약간 작게) -->
  <path d="
    M 46 32
    C 50 39 56 44 61 41
    L 59 34 L 57 37 L 54 32 L 52 35 L 49 30 L 47 33 L 46 29
    Z"
    fill="#7c3aed"/>
</svg>
