<?xml version="1.0" standalone="no"?>
<!DOCTYPE svg PUBLIC "-//W3C//DTD SVG 20010904//EN"
 "http://www.w3.org/TR/2001/REC-SVG-20010904/DTD/svg10.dtd">
<svg version="1.0" xmlns="http://www.w3.org/2000/svg"
 width="512.000000pt" height="512.000000pt" viewBox="0 0 512.000000 512.000000"
 preserveAspectRatio="xMidYMid meet">
<metadata>
Created by potrace 1.16, written by Peter Selinger 2001-2019
</metadata>
<g transform="translate(0.000000,512.000000) scale(0.032000,-0.039204)"
fill="#7c3aed" stroke="none" fill="#7c3aed">
<path d="M0 6530 l0 -6530 8000 0 8000 0 0 6530 0 6530 -8000 0 -8000 0 0
-6530z m7200 4506 c100 -32 213 -80 253 -107 55 -38 128 -112 148 -152 11 -21
35 -55 53 -75 44 -49 100 -161 121 -242 26 -101 31 -260 11 -360 -19 -94 -59
-202 -88 -240 -31 -40 -98 -148 -98 -158 0 -20 -100 -101 -160 -131 -34 -17
-85 -46 -111 -63 l-49 -31 0 -502 c0 -376 -3 -504 -12 -513 -18 -18 -561 -17
-577 1 -7 10 -12 165 -13 513 l-3 499 -87 46 c-164 87 -282 206 -370 374 -40
77 -70 371 -48 485 37 202 52 245 116 325 119 151 278 285 337 285 6 0 40 12
76 27 100 40 181 53 311 48 85 -3 135 -11 190 -29z m5988 -585 c84 -11 106
-24 96 -55 -9 -28 -119 -222 -144 -254 -11 -13 -20 -32 -20 -42 0 -17 -46
-110 -59 -120 -3 -3 -15 -23 -26 -45 -11 -22 -29 -51 -41 -65 -22 -26 -117
-187 -151 -255 -11 -22 -37 -69 -58 -105 -21 -36 -45 -78 -54 -95 -9 -16 -32
-52 -51 -80 -47 -68 -66 -112 -90 -210 -34 -140 -19 -277 45 -405 40 -80 142
-212 178 -231 12 -7 34 -22 48 -34 31 -25 135 -76 204 -100 110 -38 282 -37
395 1 121 41 263 142 312 223 12 20 25 38 29 41 4 3 13 17 19 30 15 34 30 59
61 100 15 19 34 58 43 85 9 28 39 86 66 130 46 74 85 138 154 255 14 25 31 52
36 60 5 8 22 42 37 75 15 33 47 93 70 133 24 40 43 75 43 77 0 3 10 16 23 31
12 14 38 55 57 92 39 75 69 91 91 50 15 -28 72 -97 132 -160 45 -46 137 -201
137 -230 0 -9 7 -21 15 -28 14 -12 85 -153 85 -170 0 -4 14 -37 30 -74 38 -83
84 -269 100 -401 20 -158 8 -421 -25 -575 -24 -115 -50 -203 -74 -247 -5 -10
-19 -45 -32 -78 -12 -33 -39 -94 -60 -135 -21 -41 -48 -95 -59 -120 -30 -67
-63 -118 -101 -159 -50 -52 -119 -137 -154 -190 -16 -25 -49 -59 -72 -76 -24
-16 -90 -69 -148 -117 -159 -132 -251 -188 -306 -188 -10 0 -19 -4 -19 -9 0
-11 -129 -74 -210 -101 -35 -12 -76 -28 -92 -36 -15 -8 -38 -14 -52 -14 -14 0
-28 -4 -31 -10 -3 -5 -19 -10 -35 -10 -16 0 -41 -5 -57 -11 -73 -28 -309 -59
-448 -59 -155 0 -349 31 -565 91 -19 6 -53 15 -74 20 -22 5 -91 35 -155 66
-64 31 -141 66 -171 78 -66 26 -304 186 -338 227 -13 15 -47 44 -76 63 -67 44
-187 169 -214 221 -11 23 -32 48 -46 58 -14 9 -35 33 -46 54 -11 20 -35 58
-53 84 -95 139 -137 219 -137 262 0 12 -4 26 -9 32 -22 24 -91 199 -106 270
-10 43 -21 97 -26 119 -35 155 -51 483 -30 606 6 30 15 88 22 129 17 107 84
321 124 400 13 25 29 65 36 90 16 59 64 146 103 190 17 19 53 67 79 105 112
163 98 147 223 260 54 49 118 108 141 131 23 22 62 49 85 60 44 19 151 82 200
116 33 23 274 124 339 143 43 11 89 19 279 44 83 12 482 6 578 -8z m-4223
-2275 c33 -10 78 -21 100 -26 109 -24 360 -132 431 -186 18 -13 57 -34 87 -48
67 -29 181 -118 232 -181 20 -24 59 -60 85 -79 51 -36 157 -169 179 -223 7
-17 23 -41 37 -54 13 -12 24 -26 24 -31 0 -5 12 -27 26 -50 82 -129 150 -285
174 -398 7 -30 16 -71 20 -90 5 -19 16 -94 24 -166 23 -188 24 -2003 1 -2235
-21 -213 -35 -328 -46 -369 -45 -170 -73 -270 -84 -295 -31 -70 -65 -163 -65
-179 0 -9 -4 -14 -10 -11 -5 3 -10 -3 -10 -15 0 -11 -11 -37 -23 -58 -13 -20
-36 -68 -52 -107 -38 -98 -69 -157 -102 -195 -15 -18 -50 -68 -78 -110 -126
-193 -234 -319 -425 -496 -89 -82 -217 -184 -275 -219 -118 -72 -224 -141
-245 -160 -31 -28 -127 -76 -211 -105 -35 -12 -82 -30 -104 -40 -22 -9 -83
-32 -135 -50 -52 -18 -102 -36 -111 -41 -23 -12 -165 -49 -189 -49 -11 0 -28
-4 -38 -9 -35 -18 -91 -31 -246 -56 l-158 -26 -827 4 c-674 4 -843 7 -916 19
-193 33 -280 50 -289 59 -6 5 -20 9 -33 9 -12 0 -51 9 -85 19 -35 11 -97 30
-138 42 -41 12 -106 38 -145 57 -38 19 -98 43 -133 53 -35 10 -78 27 -95 38
-18 11 -56 32 -84 47 -29 15 -53 31 -53 36 0 4 -4 8 -10 8 -13 0 -146 85 -155
99 -3 6 -30 23 -58 38 -74 37 -185 123 -236 183 -24 29 -67 67 -95 85 -58 37
-130 110 -168 170 -14 22 -47 63 -73 90 -69 72 -162 200 -197 269 -17 33 -42
78 -56 101 -14 22 -45 77 -68 122 -23 45 -49 92 -58 104 -25 36 -71 164 -115
319 -22 80 -50 177 -61 216 -11 39 -20 83 -20 97 0 14 -4 37 -9 50 -18 46 -40
203 -51 367 -8 116 -11 442 -7 1105 4 833 6 950 21 1030 10 50 20 105 23 123
3 18 9 35 14 38 5 3 9 15 9 27 0 28 51 191 73 234 9 17 24 53 33 80 24 69 77
172 113 218 101 127 135 174 151 206 11 20 36 51 57 69 98 85 182 159 229 203
28 26 75 58 105 70 59 25 105 50 153 84 38 27 50 33 151 73 44 17 89 35 100
39 49 21 213 59 305 70 36 5 911 8 1945 7 1758 -2 1884 -4 1940 -20z m2584
-1330 c20 -13 56 -35 81 -49 25 -14 68 -45 96 -69 28 -24 67 -52 85 -63 18
-11 45 -27 59 -36 58 -36 173 -91 284 -138 66 -27 123 -55 127 -63 10 -19 -12
-113 -37 -157 -10 -18 -28 -50 -39 -70 -63 -113 -120 -202 -151 -232 -19 -19
-44 -53 -54 -76 -21 -48 -139 -180 -184 -205 -17 -10 -53 -42 -81 -71 -27 -28
-68 -66 -90 -82 -56 -42 -217 -145 -227 -145 -4 0 -46 -18 -93 -40 -47 -22
-87 -40 -90 -40 -2 0 -33 -13 -67 -29 -178 -80 -496 -146 -512 -105 -3 8 -6
226 -6 484 0 384 2 471 14 482 7 8 44 20 81 27 38 6 100 27 139 45 39 18 91
39 116 46 58 18 135 76 182 137 20 26 66 78 100 115 57 60 148 206 148 236 0
6 11 36 25 67 29 62 42 67 94 31z m-8261 -1160 c1 -308 -1 -433 -9 -442 -7 -8
-31 -14 -59 -14 -110 0 -294 -48 -427 -112 -45 -22 -132 -109 -163 -165 -18
-31 -47 -79 -66 -106 -31 -44 -59 -123 -81 -222 -5 -23 -10 -88 -12 -145 -2
-89 -5 -108 -21 -121 -16 -14 -64 -16 -401 -15 l-383 1 -14 25 c-17 32 -8 343
13 440 29 138 57 231 90 305 7 16 21 55 31 85 25 80 70 166 112 213 39 43 142
176 177 228 11 16 41 44 67 62 67 46 157 116 198 153 40 36 171 105 245 127
28 9 75 25 105 35 93 33 201 61 280 73 72 11 269 27 300 25 13 -1 15 -57 18
-430z m-1038 -1574 c30 -6 89 -21 130 -35 41 -13 103 -32 138 -42 34 -10 79
-32 100 -50 20 -17 75 -61 122 -97 133 -103 168 -145 289 -347 67 -111 97
-205 122 -373 13 -91 7 -300 -11 -363 -7 -22 -19 -65 -28 -95 -30 -107 -112
-252 -200 -355 -66 -77 -87 -99 -144 -144 -110 -89 -149 -112 -236 -140 -76
-26 -89 -27 -102 -15 -13 13 -15 79 -17 459 l-2 443 -44 94 c-24 51 -50 98
-58 104 -8 7 -54 26 -102 43 -111 39 -175 40 -282 5 -107 -35 -109 -36 -153
-102 -82 -122 -77 -84 -79 -586 -2 -508 0 -493 -70 -464 -21 9 -59 23 -85 33
-68 24 -164 90 -238 166 -130 131 -166 175 -200 244 -19 39 -49 95 -66 125
-55 93 -69 184 -68 425 1 199 2 215 28 299 15 49 42 115 60 145 18 31 51 88
74 126 22 39 57 88 77 110 20 22 53 58 73 81 21 22 75 69 122 104 47 35 87 68
88 72 8 18 72 44 192 78 25 7 63 19 85 27 112 39 337 51 485 25z"/>
<path d="M6851 11039 c-36 -5 -92 -20 -125 -33 -34 -13 -88 -31 -120 -41 -66
-19 -145 -86 -264 -223 -88 -100 -108 -141 -138 -278 -23 -103 -26 -134 -21
-244 2 -69 12 -164 22 -212 15 -76 25 -100 77 -180 88 -135 180 -221 308 -288
l105 -55 3 -499 c1 -348 6 -503 13 -513 14 -16 499 -19 530 -3 18 10 19 27 19
514 l0 503 48 30 c26 17 81 47 122 67 85 42 112 71 215 230 100 154 135 269
135 450 0 80 -6 121 -26 191 -29 101 -71 189 -112 237 -16 18 -40 51 -53 73
-45 75 -153 161 -257 204 -165 68 -333 93 -481 70z"/>
<path d="M12650 10445 c-196 -20 -265 -33 -369 -71 -102 -37 -110 -40 -183
-73 -26 -12 -50 -21 -54 -21 -3 0 -25 -14 -49 -30 -24 -17 -87 -53 -140 -81
-60 -31 -120 -72 -158 -108 -34 -32 -102 -96 -152 -141 -49 -45 -96 -94 -104
-109 -8 -14 -34 -53 -59 -86 -158 -208 -188 -256 -213 -343 -10 -35 -23 -70
-29 -77 -24 -29 -106 -291 -125 -400 -33 -195 -35 -493 -4 -650 31 -155 65
-271 101 -355 41 -93 46 -106 58 -155 7 -27 28 -70 45 -95 18 -25 41 -61 52
-80 41 -76 106 -171 131 -192 15 -13 39 -43 54 -68 31 -53 179 -200 225 -223
17 -9 42 -30 55 -46 12 -16 66 -59 118 -95 52 -36 113 -79 135 -94 22 -16 58
-35 80 -42 22 -7 90 -37 151 -65 62 -29 149 -65 195 -79 46 -14 98 -30 114
-35 71 -23 251 -51 381 -60 227 -16 440 6 654 66 77 22 282 105 364 147 38 20
76 36 85 36 26 0 169 96 250 169 42 37 96 82 121 98 51 35 90 74 116 119 19
31 100 128 140 168 42 41 93 129 118 201 7 22 25 57 38 77 23 33 45 85 109
253 23 60 64 240 80 349 8 50 10 148 6 270 -5 185 -21 292 -66 441 -19 65 -94
244 -130 310 -21 39 -42 81 -46 95 -13 42 -88 151 -159 230 -37 41 -74 88 -84
103 -9 15 -23 26 -31 25 -22 -5 -163 -237 -280 -461 -57 -108 -104 -190 -135
-232 -31 -42 -101 -171 -122 -225 -9 -25 -25 -54 -34 -65 -9 -11 -39 -58 -66
-105 -106 -185 -259 -288 -486 -330 -123 -22 -306 17 -440 94 -146 85 -217
160 -295 315 l-48 96 -3 136 c-6 209 5 242 167 504 51 83 105 177 121 210 26
58 56 108 148 246 23 35 63 106 88 156 24 51 65 127 89 168 25 41 56 97 70
125 23 46 24 50 7 59 -27 14 -286 41 -386 40 -50 -1 -147 -7 -216 -14z"/>
<path d="M5060 8169 c-25 -5 -79 -16 -121 -24 -105 -20 -322 -104 -415 -160
-43 -26 -106 -60 -139 -75 -34 -15 -82 -47 -107 -71 -25 -24 -61 -57 -79 -73
-132 -115 -192 -174 -214 -212 -25 -43 -103 -150 -152 -208 -31 -37 -75 -125
-107 -212 -13 -38 -38 -104 -54 -147 -17 -42 -36 -101 -42 -130 -7 -28 -16
-56 -20 -62 -4 -5 -10 -30 -13 -55 -3 -25 -10 -79 -17 -120 -15 -96 -23 -1902
-9 -2100 16 -225 38 -360 91 -550 22 -80 49 -179 59 -220 33 -128 63 -204 116
-296 22 -38 57 -100 78 -139 21 -38 51 -95 68 -125 54 -100 141 -222 199 -281
31 -32 72 -82 91 -111 36 -56 147 -168 167 -168 6 0 48 -38 93 -84 90 -92 156
-145 226 -181 25 -13 56 -32 67 -44 12 -11 75 -51 140 -90 66 -38 130 -78 145
-89 23 -19 138 -62 163 -62 6 0 40 -14 74 -30 91 -43 323 -119 422 -139 346
-69 383 -71 1228 -71 740 0 749 0 917 24 94 14 186 30 205 36 19 6 55 15 80
20 100 19 128 28 330 105 19 8 76 28 125 46 94 33 296 125 305 139 7 11 210
143 242 157 31 14 184 140 317 262 95 88 242 251 296 328 17 24 62 89 100 144
109 157 133 197 155 265 12 35 31 78 44 96 21 31 39 75 87 206 12 31 27 71 35
87 8 17 34 100 58 185 43 156 47 178 76 530 14 164 13 1997 -1 2130 -15 144
-34 263 -53 335 -20 74 -167 374 -205 418 -16 18 -37 50 -48 73 -25 52 -122
174 -163 205 -44 33 -120 108 -120 118 0 14 -156 130 -207 154 -26 12 -62 32
-80 45 -18 12 -58 34 -90 48 -32 14 -88 41 -125 60 -67 33 -161 63 -308 100
-72 18 -155 19 -1970 21 -1124 0 -1913 -3 -1940 -8z m3220 -889 c118 -20 306
-79 376 -118 21 -12 76 -40 122 -62 95 -45 133 -73 257 -190 151 -142 188
-186 229 -267 22 -43 50 -92 62 -110 31 -41 108 -229 133 -324 35 -133 43
-239 38 -519 -5 -336 -21 -414 -132 -641 -91 -188 -177 -313 -278 -404 -146
-132 -209 -180 -312 -238 -38 -22 -77 -45 -85 -53 -15 -12 -45 -21 -260 -74
-182 -45 -172 -45 -1470 -45 l-1235 0 -100 23 c-55 12 -116 27 -135 31 -19 5
-60 15 -90 21 -93 21 -227 91 -352 186 -64 49 -131 96 -147 106 -16 9 -44 36
-61 60 -65 91 -136 182 -159 202 -53 48 -120 211 -178 433 -28 108 -28 108
-28 438 0 343 6 412 46 523 10 29 19 61 19 71 0 74 140 329 239 436 21 22 46
52 57 66 28 37 160 155 228 202 76 55 62 46 212 120 147 72 199 90 359 123
l110 22 1210 1 c1160 1 1215 0 1325 -19z"/>
<path d="M5797 7279 c-66 -5 -139 -16 -163 -24 -25 -8 -52 -15 -62 -15 -37 0
-174 -51 -294 -109 -70 -33 -132 -61 -136 -61 -5 0 -17 -10 -28 -21 -10 -12
-39 -35 -64 -52 -141 -97 -283 -262 -429 -497 -24 -39 -51 -113 -71 -195 -52
-210 -53 -219 -57 -540 -5 -336 -7 -311 58 -570 38 -150 83 -244 159 -332 20
-23 63 -80 96 -126 32 -46 73 -94 89 -106 17 -12 66 -48 110 -79 45 -31 101
-73 125 -93 25 -20 88 -56 140 -81 85 -41 127 -53 305 -88 22 -5 58 -14 80
-21 31 -10 307 -14 1235 -17 1227 -4 1366 -1 1500 35 66 18 123 31 170 39 83
15 386 194 403 238 3 8 21 23 39 33 75 40 230 234 311 388 27 50 79 163 99
213 22 57 50 181 60 262 13 119 5 611 -12 675 -37 141 -121 355 -153 390 -10
11 -38 61 -63 112 -32 65 -60 105 -96 140 -28 26 -90 85 -137 130 -47 45 -104
95 -126 111 -47 34 -293 154 -350 172 -22 7 -65 21 -96 32 -191 66 -235 68
-1449 66 -591 0 -1128 -5 -1193 -9z m337 -717 c129 -42 241 -150 302 -289 l29
-68 3 -395 c4 -436 0 -472 -53 -580 -24 -47 -53 -83 -103 -128 -154 -139 -194
-156 -382 -156 -176 0 -220 16 -349 129 -89 78 -140 160 -161 255 -8 39 -11
176 -8 466 l3 411 52 106 c70 140 136 202 263 246 109 38 126 40 234 35 60 -3
117 -14 170 -32z m2096 -3 c132 -43 171 -78 250 -229 l55 -105 3 -425 c3 -508
5 -496 -116 -683 -32 -50 -104 -100 -198 -139 -74 -31 -86 -33 -199 -33 -101
0 -129 4 -180 23 -84 33 -136 64 -201 125 -67 61 -118 160 -134 260 -12 77
-13 752 -1 828 5 31 29 98 54 150 57 120 120 178 241 222 161 57 263 59 426 6z"/>
<path d="M5791 6559 c-41 -10 -94 -28 -118 -40 -59 -28 -143 -125 -195 -223
l-43 -81 0 -450 0 -450 33 -71 c29 -61 47 -83 124 -150 130 -114 200 -139 373
-132 134 5 195 31 309 129 66 58 92 89 120 141 55 107 57 134 54 580 l-3 403
-43 81 c-42 81 -125 175 -188 215 -47 29 -211 69 -284 68 -36 0 -98 -9 -139
-20z"/>
<path d="M7925 6573 c-38 -9 -170 -55 -190 -66 -11 -6 -46 -35 -77 -65 -42
-40 -62 -68 -74 -106 -9 -28 -27 -69 -38 -91 -20 -39 -21 -53 -21 -475 l0
-435 37 -88 c29 -70 46 -97 87 -133 118 -106 207 -145 348 -152 68 -3 119 0
150 8 58 16 156 64 200 97 41 32 99 112 128 178 44 98 47 137 43 570 l-3 410
-53 100 c-77 144 -112 175 -252 219 -92 29 -128 36 -189 35 -42 -1 -85 -4 -96
-6z"/>
<path d="M11476 6823 c-7 -16 -21 -51 -29 -78 -27 -92 -71 -157 -209 -310
l-137 -153 -93 -37 c-51 -20 -104 -43 -116 -52 -13 -8 -67 -26 -120 -39 -52
-13 -98 -27 -101 -30 -3 -3 -7 -212 -8 -464 -2 -381 0 -460 12 -470 10 -9 33
-9 92 0 98 14 355 85 402 110 50 27 188 89 234 106 58 21 245 152 315 222 35
34 68 62 73 62 15 0 154 148 181 193 13 21 40 59 61 84 60 71 210 332 225 392
17 65 15 67 -78 104 -159 63 -211 88 -307 143 -56 33 -124 79 -151 103 -28 24
-65 53 -84 64 -37 24 -137 77 -143 77 -3 0 -11 -12 -19 -27z"/>
<path d="M3075 6088 c-156 -19 -453 -102 -589 -166 -44 -20 -99 -53 -122 -72
-46 -39 -157 -124 -221 -169 -23 -17 -56 -51 -74 -78 -18 -26 -67 -91 -110
-143 -42 -52 -93 -126 -112 -165 -54 -104 -129 -334 -163 -495 -18 -86 -31
-415 -16 -424 12 -7 758 -9 771 -2 4 3 11 61 14 128 4 68 11 141 17 163 30
112 46 151 86 208 24 34 55 83 69 108 30 57 102 121 175 155 30 14 71 35 91
45 54 28 182 58 281 65 49 4 92 12 98 19 7 8 9 155 8 421 l-3 409 -60 1 c-33
1 -96 -3 -140 -8z"/>
<path d="M1910 4101 c-36 -4 -110 -22 -165 -39 -55 -17 -118 -36 -140 -41 -88
-22 -349 -244 -428 -363 -96 -146 -141 -241 -173 -365 -21 -82 -24 -119 -24
-263 0 -145 3 -181 24 -264 59 -231 226 -462 436 -604 79 -53 204 -107 222
-96 4 3 8 195 8 427 0 499 1 505 96 638 31 42 46 52 117 80 70 27 95 32 172
33 81 1 99 -3 180 -35 l90 -36 47 -89 c68 -128 72 -167 65 -584 -6 -359 -2
-438 23 -431 86 21 143 42 168 62 17 13 63 47 104 76 120 86 212 198 311 384
45 84 53 106 82 239 17 74 20 312 6 369 -5 20 -17 70 -26 111 -21 97 -78 211
-178 360 -53 79 -87 112 -227 226 -116 94 -147 112 -245 139 -47 13 -90 27
-96 30 -49 31 -316 52 -449 36z"/>
</g>
</svg>
