<svg xmlns="http://www.w3.org/2000/svg" viewBox="0 0 128 128" role="img" aria-label="Discord logo">
  <rect width="128" height="128" rx="28" fill="#5865F2"/>
  <path d="M91.4 40.7a80.3 80.3 0 0 0-20-6.2l-1 2c-4.2-.7-8.6-.7-12.8 0l-1-2a80.3 80.3 0 0 0-20 6.2C24.4 58.6 21 76 22.7 93.1a80.8 80.8 0 0 0 24.5 12.4l5.2-7.1a52 52 0 0 1-8.2-4l2-1.5c15.8 7.4 33.8 7.4 49.6 0l2 1.5a52 52 0 0 1-8.2 4l5.2 7A80.8 80.8 0 0 0 105.3 93c2-19.8-3.4-36.9-13.9-52.2Z" fill="#fff"/>
  <ellipse cx="52" cy="69" rx="6" ry="7" fill="#5865F2"/>
  <ellipse cx="76" cy="69" rx="6" ry="7" fill="#5865F2"/>
</svg>
