<svg xmlns="http://www.w3.org/2000/svg" viewBox="0 0 32 32">
  <rect width="32" height="32" rx="8" fill="#06C755"/>
  <path d="M27 14.4C27 9.76 22.52 6 17 6S7 9.76 7 14.4c0 4.16 3.69 7.64 8.68 8.3.34.07.8.23.91.52.1.27.07.68.03.95l-.15.88c-.05.27-.22 1.07.93.58s6.2-3.65 8.46-6.25C26.2 17.7 27 16.13 27 14.4z" fill="white"/>
  <path d="M13.5 16.5h-2a.5.5 0 010-1h1.5v-3a.5.5 0 011 0v3.5a.5.5 0 01-.5.5zM15 16.5a.5.5 0 01-.5-.5v-4a.5.5 0 011 0v4a.5.5 0 01-.5.5zM19.5 16.5h-2a.5.5 0 01-.5-.5v-4a.5.5 0 011 0v3.5h1.5a.5.5 0 010 1zM21.5 16.5a.5.5 0 01-.5-.5v-4a.5.5 0 011 0v4a.5.5 0 01-.5.5z" fill="#06C755"/>
</svg>
