<svg xmlns="http://www.w3.org/2000/svg" viewBox="0 0 128 128" role="img" aria-label="WhatsApp logo">
  <circle cx="64" cy="64" r="58" fill="#25D366"/>
  <path d="M64 30c-18.8 0-34 15.2-34 34 0 6.3 1.7 12.3 4.8 17.5L30 98l17.1-4.5A33.8 33.8 0 0 0 64 98c18.8 0 34-15.2 34-34S82.8 30 64 30Z" fill="#fff"/>
  <path d="M51.6 47.4c-1.2-2.6-2.5-2.7-3.7-2.8h-3.2c-1.1 0-2.8.4-4.2 1.9-1.4 1.6-5.3 5.2-5.3 12.6 0 7.5 5.4 14.7 6.2 15.7.8 1 10.3 16.4 25.5 22.3 12.7 5 15.3 4 18.1 3.8 2.8-.3 9-3.6 10.2-7.2 1.3-3.6 1.3-6.7.9-7.2-.4-.6-1.6-.9-3.3-1.8s-9-4.5-10.4-5c-1.4-.6-2.4-.9-3.4.9-1 1.8-4 5-4.8 6-.9 1-1.8 1.1-3.4.4-1.6-.8-6.6-2.4-12.6-7.5-4.6-4.1-7.8-9.1-8.7-10.6-.9-1.6-.1-2.5.7-3.3.8-.8 1.7-2.1 2.5-3.2.8-1.1 1.1-1.8 1.6-3 .6-1.2.3-2.2-.1-3.1l-3.6-8.8Z" fill="#25D366" transform="translate(9 9) scale(.86)"/>
</svg>
